<?xml version="1.0" encoding="utf-8"?>
<!-- Generator: Adobe Illustrator 18.1.0, SVG Export Plug-In . SVG Version: 6.00 Build 0)  -->
<!DOCTYPE svg PUBLIC "-//W3C//DTD SVG 1.1//EN" "http://www.w3.org/Graphics/SVG/1.1/DTD/svg11.dtd">
<svg version="1.1"
	 id="svg2" xmlns:inkscape="http://www.inkscape.org/namespaces/inkscape" xmlns:cc="http://creativecommons.org/ns#" xmlns:svg="http://www.w3.org/2000/svg" xmlns:sodipodi="http://sodipodi.sourceforge.net/DTD/sodipodi-0.dtd" xmlns:dc="http://purl.org/dc/elements/1.1/" xmlns:rdf="http://www.w3.org/1999/02/22-rdf-syntax-ns#" sodipodi:docname="011.svg" inkscape:version="0.48.2 r9819"
	 xmlns="http://www.w3.org/2000/svg" xmlns:xlink="http://www.w3.org/1999/xlink" x="0px" y="0px"
	 viewBox="-5396.5 -6934.7 800 800" enable-background="new -5396.5 -6934.7 800 800" xml:space="preserve">
<g>
	<path fill="none" d="M-4986.5-6635.9h231.2v-121.5h-231.2V-6635.9z M-4841.6-6732h34c17.4,0,23.5,8.1,23.5,21.4v9.6
		c0,6.6-2.2,12.9-7.7,17l12.5,22.7h-24.3l-9.8-18.4h-6.7v18.4h-21.4V-6732z M-4903.6-6732h34c13.6,0,18.9,5.5,18.9,15.2v6.8
		c0,6.4-3.1,10-8.3,11.8c7,1.5,10.9,5.4,10.9,13.2v6c0,11.7-6.2,17.7-20.6,17.7h-34.9V-6732z M-4959.5-6732h48.1v17.3h-26.6v8.4
		h24.4v17.3h-24.4v10.4h26.6v17.3h-48.1V-6732z"/>
	<path fill="none" d="M-4871.5-6707.1v-5.6c0-2.2-1.2-3.4-3.4-3.4h-7.6v12.3h7.3C-4872.7-6703.8-4871.5-6704.9-4871.5-6707.1z"/>
	<path fill="none" d="M-4873.3-6689.1h-9.2v11.9h8.6c3.4,0,4.7-1.4,4.7-3.9v-4.1C-4869.3-6688-4870.6-6689.1-4873.3-6689.1z"/>
	<path fill="none" d="M-5135.7-6755.5c13.1-3.7,22.7-15.7,22.7-29.9h-22.6L-5135.7-6755.5z"/>
	<path fill="none" d="M-5151.7-6755.3l8.5-30.2h-32C-5175.3-6770.9-5165.3-6758.6-5151.7-6755.3z"/>
	<path fill="none" d="M-4805.6-6702.3v-6.9c0-3.7-1.6-5.2-5.7-5.2h-8.8v17.4h8.8C-4807.3-6697-4805.6-6698.4-4805.6-6702.3z"/>
	<polygon points="-4911.4,-6678.6 -4938,-6678.6 -4938,-6689 -4913.6,-6689 -4913.6,-6706.3 -4938,-6706.3 -4938,-6714.7 
		-4911.4,-6714.7 -4911.4,-6732 -4959.5,-6732 -4959.5,-6661.3 -4911.4,-6661.3 	"/>
	<path d="M-4848.1-6679v-6c0-7.7-3.9-11.7-10.9-13.2c5.2-1.8,8.3-5.4,8.3-11.8v-6.8c0-9.7-5.3-15.2-18.9-15.2h-34v70.7h34.9
		C-4854.3-6661.3-4848.1-6667.4-4848.1-6679z M-4882.5-6716.1h7.6c2.2,0,3.4,1.2,3.4,3.4v5.6c0,2.1-1.2,3.3-3.7,3.3h-7.3V-6716.1z
		 M-4869.3-6681.2c0,2.5-1.3,3.9-4.7,3.9h-8.6v-11.9h9.2c2.7,0,4,1.2,4,3.8V-6681.2z"/>
	<path d="M-4820.1-6679.7h6.7l9.8,18.4h24.3l-12.5-22.7c5.5-4,7.7-10.4,7.7-17v-9.6c0-13.4-6-21.4-23.5-21.4h-34v70.7h21.4V-6679.7z
		 M-4820.1-6714.4h8.8c4.1,0,5.7,1.5,5.7,5.2v6.9c0,3.9-1.7,5.3-5.7,5.3h-8.8V-6714.4z"/>
	<path d="M-5308.8-6839.3c1.6,5.2,3.2,10.3,4.9,15.3l-1.6-0.9l-27.7,52.1l38.9-24.1c1.7,4.5,3.5,9,5.3,13.5l-27,50.9l38.7-24
		c2.7,5.8,5.5,11.6,8.3,17.2l-19.8,37.3l29.8-18.5c24,43.4,52.1,80.3,83.7,111.3l0,0l33.3,31.9l-80.1-16.4l-2,0.7l-18.9-32.8
		l-0.2,39.1l-15,5l-14.4-25l-0.1,29.8l-10.1,3.3l-24.1-41.7l-0.2,49.7l-10.2,3.4c71.9,96.9,176.6,89.9,278.2,44.7
		c24.3,10.7,49.5,19.6,75.6,26.7l-100.9,106.8c-21.2-15.9-36.7-29.4-40.6-34.9c-5.2-7.3-10.9-14.2-10.9-14.2s-8.3-5.3-9.9-6.6
		c-2.3-3.8-2.3-9.3-2.3-9.3s0,0,0.9-6.5c4.6-12.9,17.6-19.3,17.6-19.3s2.4-4.1,1.2-5.1c-10.1,1.7-26,15.1-26,15.1
		s-20.6,25.5-22.4,27.6c-1.8,2.2-1.2,5.8-1.2,5.8l-1.6,2c-0.9,1.1-0.9,1.1-0.9,1.1s-1.2,1.5-3.5-0.4c-2.3,2.5-8.7,10.8-8.7,10.8
		s-2.1,4.2,3.4,9.2l0,0c0.2,0.2,0.5,0.4,0.8,0.6c0,0,0.1,0.1,0.1,0.1c0,0,0.1,0.1,0.1,0.1c0.3,0.2,0.5,0.4,0.8,0.6l0,0
		c6.1,4.3,9.8,1.4,9.8,1.4s6.8-8,8.7-10.8c-2.4-1.9-0.3-4.4-0.3-4.4l1.3-1.6c5.1-1.9,7,0.9,9.4,4.2c2.3,3.4,5.4,6.8,5.4,6.8
		s22.7,17.3,55.9,41.4l-18.1,19.2l6.5,31.4l5.8-18.9l20.2-21.3c0.1,0.1,0.3,0.2,0.4,0.3c41,29.4,52.6,42.2,60.4,49.2
		s10.3,19.4,14.9,28.7c4.6,9.2,9.5,7.7,9.5,7.7s16.4-5,23.5-7.5c7.1-2.5,2.3-8.2,2.3-8.2l-16.4-13.3l-8.1-7.9
		c0,0-32.9-34.4-65.2-56.8c-2.8-2-5.6-3.9-8.3-5.8l106.1-112.2c10.3,2.5,20.7,4.7,31.2,6.6l-64.7,68.5l23.5,21.9l-5.2-15.6
		l67.2-71.2c7.2,1.1,14.4,2.1,21.7,3v255.4L-4718-6419v201.8l121.5-161v-461.1H-5308.8z M-5151.7-6755.3
		c-13.5-3.4-23.5-15.6-23.5-30.2h32L-5151.7-6755.3z M-5135.7-6755.5l0.1-29.9h22.6C-5113.1-6771.2-5122.7-6759.2-5135.7-6755.5z
		 M-4755.3-6635.9h-231.2v-121.5h231.2V-6635.9z"/>
</g>
</svg>
