<?xml version="1.0" encoding="utf-8"?>
<!-- Generator: Adobe Illustrator 18.1.0, SVG Export Plug-In . SVG Version: 6.00 Build 0)  -->
<!DOCTYPE svg PUBLIC "-//W3C//DTD SVG 1.1//EN" "http://www.w3.org/Graphics/SVG/1.1/DTD/svg11.dtd">
<svg version="1.1"
	 id="svg2" xmlns:inkscape="http://www.inkscape.org/namespaces/inkscape" xmlns:cc="http://creativecommons.org/ns#" xmlns:svg="http://www.w3.org/2000/svg" xmlns:sodipodi="http://sodipodi.sourceforge.net/DTD/sodipodi-0.dtd" xmlns:dc="http://purl.org/dc/elements/1.1/" xmlns:rdf="http://www.w3.org/1999/02/22-rdf-syntax-ns#" sodipodi:docname="011.svg" inkscape:version="0.48.2 r9819"
	 xmlns="http://www.w3.org/2000/svg" xmlns:xlink="http://www.w3.org/1999/xlink" x="0px" y="0px"
	 viewBox="-3519.5 -6091 1612.3 601.2" enable-background="new -3519.5 -6091 1612.3 601.2" xml:space="preserve">
<g>
	<g>
		<path d="M-3158.3-5987.3h46.5v16.7h-25.7v8.1h23.6v16.7h-23.6v10h25.7v16.7h-46.5V-5987.3z"/>
		<path d="M-3104.3-5987.3h32.8c13.1,0,18.3,5.3,18.3,14.7v6.6c0,6.2-3,9.6-8,11.4c6.8,1.4,10.6,5.2,10.6,12.7v5.8
			c0,11.3-5.9,17.1-19.9,17.1h-33.7V-5987.3z M-3076.9-5960c2.5,0,3.6-1.1,3.6-3.2v-5.4c0-2.2-1.1-3.3-3.3-3.3h-7.4v11.9H-3076.9z
			 M-3075.6-5934.4c3.3,0,4.5-1.3,4.5-3.8v-4c0-2.6-1.3-3.7-3.9-3.7h-8.9v11.5H-3075.6z"/>
		<path d="M-2988.9-5957.4c0,6.4-2.2,12.5-7.5,16.4l12.1,21.9h-23.5l-9.4-17.7h-6.5v17.7h-20.7v-68.3h32.8
			c16.8,0,22.7,7.8,22.7,20.7V-5957.4z M-3009.6-5965.3c0-3.6-1.5-5-5.5-5h-8.5v16.8h8.5c3.9,0,5.5-1.3,5.5-5.1V-5965.3z"/>
	</g>
	<g>
		<path d="M-2743.2-5985.2c-13.4,0-19.6,6.7-19.6,17.9v28.1c0,11.3,6.2,17.9,19.6,17.9c13.4,0,19.6-6.7,19.6-17.9v-28.1
			C-2723.6-5978.6-2729.7-5985.2-2743.2-5985.2z"/>
		<path d="M-2511.1-5985.2c-13.4,0-19.6,6.7-19.6,17.9v28.1c0,11.3,6.2,17.9,19.6,17.9c13.4,0,19.6-6.7,19.6-17.9v-28.1
			C-2491.5-5978.6-2497.7-5985.2-2511.1-5985.2z"/>
		<polygon points="-2651.5,-5941.4 -2622.6,-5941.4 -2637,-5984.6 		"/>
		<path d="M-2902.6-5961.8v-9.6c0-8.8-5-12.6-13.9-12.6h-19.9v34.9h19.9C-2907.2-5949.2-2902.6-5953-2902.6-5961.8z"/>
		<path d="M-2010.7-6091v44.9h-4.8v-44.9h-31v27.1h-4.8v-27.1h-31v44.9h-4.8v-44.9h-138.6v44.9h-4.8v-44.9h-31v27.1h-4.8v-27.1h-31
			v44.9h-4.8v-44.9h-31v27.1h-4.8v-27.1h-31v44.9h-4.8v-44.9h-1122c1.5,5,3.1,9.9,4.8,14.8l-1.6-0.8l-26.7,50.3l37.6-23.3
			c1.7,4.4,3.4,8.7,5.1,13l-26.1,49.2l37.4-23.2c2.6,5.6,5.3,11.2,8,16.6l-19.1,36l28.8-17.8c23.2,41.9,50.3,77.6,80.9,107.6l0,0
			l32.2,30.8l-77.4-15.9l-2,0.7l-18.3-31.7l-0.1,37.8l-14.5,4.8l-14-24.2l-0.1,28.8l-9.8,3.2l-23.3-40.3l-0.2,48.1l-9.8,3.3
			c69.5,93.6,170.7,86.9,268.8,43.2c23.4,10.4,47.8,18.9,73,25.8l-97.5,103.2c-20.5-15.4-35.5-28.5-39.2-33.8
			c-5-7.1-10.6-13.7-10.6-13.7s-8-5.1-9.5-6.3c-2.3-3.6-2.2-9-2.2-9s0,0,0.9-6.3c4.5-12.4,17-18.6,17-18.6s2.3-4,1.2-4.9
			c-9.7,1.7-25.1,14.6-25.1,14.6s-20,24.6-21.7,26.7c-1.7,2.1-1.2,5.6-1.2,5.6l-1.6,1.9c-0.8,1-0.8,1-0.8,1s-1.1,1.5-3.4-0.4
			c-2.2,2.4-8.4,10.4-8.4,10.4s-2,4,3.3,8.9l0,0c0.2,0.2,0.5,0.4,0.7,0.6c0,0,0.1,0.1,0.1,0.1c0,0,0.1,0.1,0.1,0.1
			c0.3,0.2,0.5,0.4,0.7,0.6l0,0c5.9,4.2,9.4,1.4,9.4,1.4s6.5-7.8,8.4-10.4c-2.3-1.9-0.3-4.3-0.3-4.3l1.2-1.5c5-1.8,6.8,0.8,9.1,4.1
			c2.3,3.2,5.2,6.5,5.2,6.5s22,16.7,54.1,40l-17.5,18.5l6.3,30.4l5.6-18.3l19.5-20.6c0.1,0.1,0.3,0.2,0.4,0.3
			c39.7,28.4,50.9,40.8,58.4,47.6c7.5,6.8,9.9,18.8,14.4,27.7c4.4,8.9,9.1,7.4,9.1,7.4s15.8-4.9,22.7-7.3c6.8-2.4,2.3-8,2.3-8
			l-15.9-12.9l-7.8-7.6c0,0-31.8-33.3-63-54.9c-2.7-1.9-5.4-3.8-8-5.6l102.5-108.4c10,2.4,20,4.5,30.2,6.4l-62.5,66.2l22.7,21.1
			l-5-15.1l64.9-68.8c6.9,1.1,13.9,2,21,2.9v246.8l147.2-195v195l203.6-269.7c407.1-85.3,814.2-331.5,814.2-331.5H-2010.7z
			 M-3344.1-6009.8c-13.1-3.3-22.7-15.1-22.7-29.1h31L-3344.1-6009.8z M-3328.7-6010l0.1-28.9h21.8
			C-3306.8-6025.2-3316-6013.6-3328.7-6010z M-2961-5894.4h-223.4v-117.4h223.4V-5894.4z M-2896.9-5919l-18.2-27h-21.4v27h-3.8
			v-68.3h23.7c11.8,0,17.6,5.5,17.6,15.8v9.6c0,8.5-4.2,13.9-12.3,15.5l18.6,27.4H-2896.9z M-2841.8-5919h-38.4v-68.3h38.3v3.4
			h-34.5v28.9h32.2v3.4h-32.2v29.2h34.6V-5919z M-2781.8-5919h-5.5l-36.5-64.8v64.8h-3.6v-68.3h5.5l36.5,64.8v-64.8h3.6V-5919z
			 M-2719.9-5939.5c0,12.3-6.8,21.5-23.3,21.5c-16.5,0-23.3-9.2-23.3-21.5v-27.5c0-12.3,6.8-21.5,23.3-21.5
			c16.5,0,23.3,9.2,23.3,21.5V-5939.5z M-2689-5919l-22.7-68.3h3.7l21.6,65.2l21.6-65.2h3.7l-22.7,68.3H-2689z M-2615.1-5919
			l-6.5-19.2h-31.1l-6.4,19.2h-4l23.5-68.3h4.9l23.5,68.3H-2615.1z M-2565-5984h-21.1v65h-3.8v-65h-21.1v-3.3h46V-5984z
			 M-2550.2-5919h-3.8v-68.3h3.8V-5919z M-2487.8-5939.5c0,12.3-6.8,21.5-23.3,21.5c-16.5,0-23.3-9.2-23.3-21.5v-27.5
			c0-12.3,6.8-21.5,23.3-21.5c16.5,0,23.3,9.2,23.3,21.5V-5939.5z M-2426.8-5919h-5.5l-36.5-64.8v64.8h-3.6v-68.3h5.5l36.5,64.8
			v-64.8h3.6V-5919z"/>
	</g>
</g>
</svg>
