<?xml version="1.0" encoding="utf-8"?>
<!-- Generator: Adobe Illustrator 18.1.0, SVG Export Plug-In . SVG Version: 6.00 Build 0)  -->
<!DOCTYPE svg PUBLIC "-//W3C//DTD SVG 1.1//EN" "http://www.w3.org/Graphics/SVG/1.1/DTD/svg11.dtd">
<svg version="1.1"
	 id="svg2" xmlns:inkscape="http://www.inkscape.org/namespaces/inkscape" xmlns:cc="http://creativecommons.org/ns#" xmlns:svg="http://www.w3.org/2000/svg" xmlns:sodipodi="http://sodipodi.sourceforge.net/DTD/sodipodi-0.dtd" xmlns:dc="http://purl.org/dc/elements/1.1/" xmlns:rdf="http://www.w3.org/1999/02/22-rdf-syntax-ns#" sodipodi:docname="011.svg" inkscape:version="0.48.2 r9819"
	 xmlns="http://www.w3.org/2000/svg" xmlns:xlink="http://www.w3.org/1999/xlink" x="0px" y="0px"
	 viewBox="-3519.5 -6829 1612.3 601.2" enable-background="new -3519.5 -6829 1612.3 601.2" xml:space="preserve">
<g>
	<polygon points="-3111.8,-6673.8 -3137.6,-6673.8 -3137.6,-6683.8 -3114,-6683.8 -3114,-6700.6 -3137.6,-6700.6 -3137.6,-6708.7 
		-3111.8,-6708.7 -3111.8,-6725.4 -3158.3,-6725.4 -3158.3,-6657.1 -3111.8,-6657.1 	"/>
	<path d="M-3050.7-6674.2v-5.8c0-7.5-3.8-11.3-10.6-12.7c5-1.7,8-5.2,8-11.4v-6.6c0-9.3-5.1-14.7-18.3-14.7h-32.8v68.3h33.7
		C-3056.7-6657.1-3050.7-6662.9-3050.7-6674.2z M-3083.9-6710h7.4c2.2,0,3.3,1.1,3.3,3.3v5.4c0,2-1.1,3.2-3.6,3.2h-7.1V-6710z
		 M-3071.1-6676.3c0,2.5-1.2,3.8-4.5,3.8h-8.3v-11.5h8.9c2.6,0,3.9,1.1,3.9,3.7V-6676.3z"/>
	<path d="M-3023.6-6674.8h6.5l9.4,17.7h23.5l-12.1-21.9c5.3-3.9,7.5-10,7.5-16.4v-9.2c0-12.9-5.8-20.7-22.7-20.7h-32.8v68.3h20.7
		V-6674.8z M-3023.6-6708.3h8.5c4,0,5.5,1.4,5.5,5v6.7c0,3.8-1.6,5.1-5.5,5.1h-8.5V-6708.3z"/>
	<path d="M-2010.7-6829v44.9h-4.8v-44.9h-31v27.1h-4.8v-27.1h-31v44.9h-4.8v-44.9h-138.6v44.9h-4.8v-44.9h-31v27.1h-4.8v-27.1h-31
		v44.9h-4.8v-44.9h-31v27.1h-4.8v-27.1h-31v44.9h-4.8v-44.9h-1122c1.5,5,3.1,9.9,4.8,14.8l-1.6-0.8l-26.7,50.3l37.6-23.3
		c1.7,4.4,3.4,8.7,5.1,13l-26.1,49.2l37.4-23.2c2.6,5.6,5.3,11.2,8,16.6l-19.1,36l28.8-17.8c23.2,41.9,50.3,77.6,80.9,107.6l0,0
		l32.2,30.8l-77.4-15.9l-2,0.7l-18.3-31.7l-0.1,37.8l-14.5,4.8l-14-24.2l-0.1,28.8l-9.8,3.2l-23.3-40.3l-0.2,48.1l-9.8,3.3
		c69.5,93.6,170.7,86.9,268.8,43.2c23.4,10.4,47.8,18.9,73,25.8l-97.5,103.2c-20.5-15.4-35.5-28.5-39.2-33.8
		c-5-7.1-10.6-13.7-10.6-13.7s-8-5.1-9.5-6.3c-2.3-3.6-2.2-9-2.2-9s0,0,0.9-6.3c4.5-12.4,17-18.6,17-18.6s2.3-4,1.2-4.9
		c-9.7,1.7-25.1,14.6-25.1,14.6s-20,24.6-21.7,26.7c-1.7,2.1-1.1,5.6-1.1,5.6l-1.6,1.9c-0.8,1-0.8,1-0.8,1s-1.1,1.5-3.4-0.4
		c-2.2,2.4-8.4,10.4-8.4,10.4s-2,4,3.3,8.9l0,0c0.2,0.2,0.5,0.4,0.7,0.6c0,0,0.1,0.1,0.1,0.1c0,0,0.1,0.1,0.1,0.1
		c0.3,0.2,0.5,0.4,0.7,0.6l0,0c5.9,4.2,9.4,1.4,9.4,1.4s6.5-7.8,8.4-10.4c-2.3-1.9-0.3-4.3-0.3-4.3l1.2-1.5c5-1.8,6.8,0.8,9.1,4.1
		c2.3,3.2,5.2,6.5,5.2,6.5s22,16.7,54.1,40l-17.5,18.5l6.3,30.4l5.6-18.3l19.5-20.6c0.1,0.1,0.3,0.2,0.4,0.3
		c39.7,28.4,50.9,40.8,58.4,47.6s9.9,18.8,14.4,27.7c4.4,8.9,9.1,7.4,9.1,7.4s15.8-4.9,22.7-7.3c6.8-2.4,2.3-8,2.3-8l-15.9-12.9
		l-7.8-7.6c0,0-31.8-33.3-63-54.9c-2.7-1.9-5.4-3.8-8-5.6l102.5-108.4c10,2.4,20,4.5,30.2,6.4l-62.5,66.2l22.7,21.1l-5-15.1
		l64.9-68.8c6.9,1.1,13.9,2,21,2.9v246.8l147.2-195v195l203.6-269.7c407.1-85.3,814.2-331.5,814.2-331.5H-2010.7z M-3344.1-6747.9
		c-13.1-3.3-22.7-15.1-22.7-29.1h31L-3344.1-6747.9z M-3328.7-6748.1l0.1-28.9h21.8C-3306.8-6763.2-3316-6751.6-3328.7-6748.1z
		 M-2961-6632.5h-223.4v-117.4h223.4V-6632.5z"/>
</g>
</svg>
